<?xml version="1.0" standalone="no"?> <!DOCTYPE svg PUBLIC "-//W3C//DTD SVG 20010904//EN" "http://www.w3.org/TR/2001/REC-SVG-20010904/DTD/svg10.dtd"> <svg version="1.0" xmlns="http://www.w3.org/2000/svg" width="486.000000pt" height="493.000000pt" viewBox="0 0 486.000000 493.000000" preserveAspectRatio="xMidYMid meet"> <g transform="translate(0.000000,493.000000) scale(0.050000,-0.050000)" fill="#960035" stroke="none"> <path d="M4870 9208 c-662 -68 -1264 -335 -1555 -691 -237 -289 -418 -894 -427 -1427 -3 -165 -11 -399 -19 -520 -24 -383 60 -718 241 -960 103 -137 99 -111 59 -387 -59 -407 -196 -892 -247 -876 -18 5 -86 29 -152 53 -187 68 -410 10 -920 -241 -331 -162 -427 -241 -532 -434 l-33 -59 -140 35 c-158 40 -228 32 -424 -51 -82 -34 -137 -45 -186 -37 -57 9 -103 -6 -252 -83 -262 -135 -283 -155 -283 -262 l0 -89 115 85 c119 88 362 216 408 216 15 0 -17 -40 -70 -89 l-98 -88 108 -55 c586 -304 668 -330 848 -268 161 56 184 39 38 -28 -171 -79 -204 -81 -349 -26 -146 55 -646 298 -690 334 -16 13 -40 20 -54 15 -38 -13 139 -122 414 -254 387 -186 410 -192 531 -153 164 54 323 130 311 149 -6 9 50 40 124 68 74 28 152 58 174 66 35 13 36 16 5 24 -19 4 -109 -19 -200 -52 -490 -179 -461 -180 -865 20 -350 173 -350 173 -183 266 370 207 440 212 801 63 594 -246 943 -590 1062 -1046 40 -152 41 -386 2 -386 -36 0 -234 238 -459 550 -189 264 -325 425 -343 407 -6 -6 28 -60 76 -119 48 -60 149 -198 225 -308 189 -276 320 -432 442 -529 58 -45 56 -89 -11 -265 l-21 -55 -85 39 c-174 79 -340 38 -423 -103 -185 -320 81 -669 325 -425 151 152 158 325 15 390 -169 77 -289 -231 -132 -343 70 -49 61 -79 -24 -79 -159 0 -238 243 -131 402 62 93 125 121 243 111 330 -27 207 -554 -161 -692 -180 -68 -217 -62 -405 66 -202 137 -235 138 -393 22 -227 -167 -700 -483 -744 -497 -24 -8 -123 0 -220 17 -220 39 -206 40 -206 -18 0 -57 89 -79 330 -80 157 -1 216 32 777 425 268 188 235 186 428 30 110 -89 112 -83 -80 -219 -706 -503 -947 -595 -1360 -520 l-95 18 0 -103 c0 -126 17 -135 290 -155 186 -13 432 45 570 135 59 38 242 118 270 118 20 0 9 -34 -41 -118 -73 -125 -79 -142 -53 -142 9 0 47 63 84 140 58 121 77 143 136 159 146 40 534 -89 668 -223 l76 -76 200 0 c196 0 200 1 233 55 19 30 37 58 40 62 3 4 51 -20 106 -55 60 -36 128 -62 166 -62 l65 1 -105 91 c-190 165 -131 170 91 8 112 -82 154 -101 205 -96 63 6 62 7 -83 106 -81 55 -216 154 -300 220 -84 66 -178 138 -207 160 l-54 40 54 230 c67 288 89 328 164 296 145 -61 829 -595 1134 -886 173 -164 211 -191 211 -152 0 53 -639 607 -965 836 -183 129 -185 132 -148 190 16 25 99 213 183 416 175 421 170 413 286 463 124 53 79 66 912 -265 853 -337 949 -383 1072 -508 l86 -88 -73 -206 c-40 -113 -73 -232 -73 -264 0 -103 317 -592 383 -592 48 0 43 9 -145 295 -167 253 -169 260 -119 431 49 173 102 264 152 264 60 0 58 -60 -7 -198 -97 -208 -98 -233 -12 -377 167 -278 269 -415 309 -415 54 0 50 14 -45 150 -182 261 -256 382 -256 420 1 60 74 210 104 211 432 17 1110 32 1129 25 124 -48 134 -232 29 -562 -65 -206 -72 -245 -45 -240 23 4 56 76 106 226 113 342 116 374 35 523 -90 168 -58 217 47 71 149 -207 147 -192 64 -490 -40 -145 -82 -280 -93 -301 -16 -31 -12 -35 27 -30 52 8 91 106 178 448 l46 181 -46 93 c-26 51 -86 137 -134 192 -92 105 -110 163 -52 163 42 -1 154 -149 245 -325 l67 -128 -91 -313 c-81 -283 -86 -314 -54 -314 24 0 42 22 54 65 11 36 53 186 95 333 l77 268 -56 102 c-31 56 -96 161 -143 233 l-87 131 31 134 c38 167 144 269 762 731 148 110 239 11 506 -545 168 -351 168 -300 7 -730 -236 -629 -267 -722 -238 -722 28 0 83 140 262 667 60 175 115 328 123 340 55 84 28 -645 -31 -862 l-39 -145 84 0 84 0 27 161 c34 200 39 206 204 246 259 63 363 -8 437 -302 26 -104 28 -105 103 -105 42 0 76 2 76 5 -1 7 -75 278 -91 330 -13 42 -8 45 80 45 113 0 133 36 192 340 118 606 78 1070 -141 1637 -260 675 -1017 1176 -1781 1180 l-312 2 -169 165 c-110 108 -235 204 -355 275 -214 126 -203 80 -106 441 35 127 86 347 115 489 50 249 71 319 207 689 169 458 150 1876 -32 2422 -256 767 -1166 1283 -2097 1188z m650 -181 c200 -41 357 -97 411 -148 161 -151 294 -644 286 -1059 -1 -84 -8 -55 -29 120 -15 127 -32 250 -38 275 -37 155 -612 212 -916 90 -42 -16 -79 -27 -82 -23 -4 5 -46 71 -92 148 -163 269 -316 446 -477 554 l-50 33 48 12 c230 54 666 53 939 -2z m-952 -86 c88 -60 277 -255 313 -323 17 -31 11 -39 -36 -49 -176 -39 -285 -70 -362 -103 l-87 -37 -143 142 c-79 79 -182 163 -230 188 -48 24 -80 52 -70 61 39 37 423 173 503 178 15 1 65 -24 112 -57z m1599 -145 c78 -46 185 -127 237 -180 51 -53 101 -96 110 -96 15 0 162 -163 193 -215 31 -50 -19 -22 -113 66 -53 49 -112 89 -131 89 -19 0 -44 8 -54 19 -10 10 -67 30 -125 45 -105 26 -106 28 -194 191 -48 91 -83 165 -77 165 5 0 75 -38 154 -84z m-2164 -77 c155 -79 370 -308 310 -330 -18 -7 -64 25 -121 87 -88 94 -151 143 -312 241 l-70 42 56 1 c30 0 92 -19 137 -41z m-73 -87 c119 -80 290 -239 290 -269 0 -12 -40 -49 -89 -82 -49 -34 -103 -81 -120 -105 -30 -43 -31 -42 -146 78 -112 119 -247 206 -319 206 -99 1 -87 36 47 137 162 122 204 126 337 35z m1104 -307 c104 -176 155 -280 326 -665 120 -271 118 -270 500 -269 315 0 367 14 404 105 30 75 23 552 -12 784 -35 228 -47 215 120 130 433 -219 515 -354 568 -945 12 -135 31 -297 41 -360 36 -217 17 -765 -26 -765 -11 0 -16 27 -11 60 5 33 8 60 8 60 -1 0 -87 -32 -192 -71 -605 -226 -1288 -219 -2028 20 -224 72 -372 36 -372 -91 0 -37 -48 -16 -152 67 -140 112 -144 132 -59 251 83 115 83 119 32 366 -22 103 -67 355 -101 558 -34 204 -65 390 -70 415 -16 96 36 38 112 -124 107 -230 245 -651 308 -941 82 -385 63 -348 210 -403 744 -277 1564 -302 2126 -66 209 88 206 82 193 379 l-11 250 -4 -215 c-2 -118 -5 -222 -6 -230 -30 -227 -1048 -386 -1658 -258 -436 91 -733 201 -749 278 -124 594 -299 1123 -441 1338 -27 42 -50 90 -50 106 0 66 306 250 560 336 318 109 309 111 434 -100z m-1470 94 c225 -62 364 -254 393 -539 12 -115 50 -354 84 -530 112 -577 112 -574 59 -660 -55 -89 -64 -77 -100 120 -91 496 -182 687 -471 990 -311 327 -311 327 -163 545 68 101 82 106 198 74z m2464 -146 c103 -44 84 -58 -47 -33 -129 24 -563 26 -664 2 -98 -23 -144 6 -54 35 116 36 160 40 427 35 192 -4 281 -14 338 -39z m44 -105 c37 -10 46 -35 66 -195 13 -100 34 -243 46 -317 32 -196 32 -196 -301 -194 -383 3 -350 -18 -487 299 -65 148 -130 298 -145 332 -15 35 -22 69 -16 75 15 15 781 15 837 0z m-2812 -127 c0 -10 88 -112 196 -225 318 -335 380 -460 493 -995 62 -293 62 -280 5 -363 -231 -340 -239 -394 -101 -666 127 -250 107 -394 -115 -820 -122 -234 -107 -247 -218 197 l-85 340 50 90 c61 109 115 284 115 373 0 36 14 79 30 95 19 19 23 35 10 43 -11 7 -20 83 -20 170 0 656 -254 1082 -510 857 -39 -34 -75 -58 -80 -53 -38 38 82 718 159 901 29 69 71 102 71 56z m46 -944 c299 -160 330 -1477 35 -1477 l-58 0 65 97 c239 355 131 1343 -147 1343 -95 0 -72 54 25 58 20 1 56 -8 80 -21z m-41 -122 c49 -38 112 -216 148 -421 86 -494 -93 -1028 -260 -776 -275 416 -181 1421 112 1197z m855 -610 c309 -280 583 -385 1008 -385 l303 0 40 85 c21 47 50 84 64 83 14 -1 169 -3 345 -5 l320 -3 35 -75 35 -75 185 -6 c228 -7 322 17 417 107 96 90 93 93 78 -86 -26 -308 -94 -483 -361 -925 -118 -196 -269 -514 -269 -567 0 -17 -131 -21 -505 -17 -620 8 -619 8 -738 -120 l-94 -100 -131 94 c-138 98 -142 105 -161 294 -23 237 -171 488 -483 821 -173 185 -359 431 -339 450 17 18 523 -386 708 -564 201 -195 368 -427 472 -659 114 -253 114 -253 101 -172 -52 338 -433 811 -1004 1244 -381 290 -373 264 -176 576 61 97 49 96 150 5z m660 -55 c72 -16 220 -47 330 -69 284 -57 290 -59 290 -91 0 -86 -353 -92 -650 -10 -211 58 -246 83 -210 150 31 58 60 60 240 20z m2027 -114 c-79 -87 -441 -151 -503 -89 -47 47 -17 67 188 122 98 27 214 61 258 77 94 33 128 -31 57 -110z m-2623 -1032 c95 -195 223 -434 285 -531 128 -204 127 -202 61 -333 -27 -54 -50 -112 -50 -128 0 -60 -37 -47 -221 80 -289 199 -330 250 -343 423 -2 36 -13 65 -23 65 -22 0 2 -169 37 -252 36 -88 158 -183 792 -619 l192 -132 98 50 c54 28 138 78 188 111 106 72 123 61 127 -79 l3 -104 -147 -102 -146 -101 -94 49 c-51 27 -217 132 -368 233 -614 411 -770 552 -854 777 -57 152 -57 151 86 431 84 163 136 294 154 383 14 74 31 134 38 134 6 -1 89 -161 185 -355z m-788 46 c21 -88 46 -178 55 -200 13 -35 8 -34 -40 10 -91 83 -115 149 -100 273 17 137 34 120 85 -83z m3186 -286 c-60 -135 -90 -242 -141 -489 -28 -135 -51 -145 -81 -36 -24 91 10 191 175 506 109 207 133 217 47 19z m-3197 24 c63 -69 105 -147 166 -305 44 -117 95 -242 113 -278 45 -89 10 -68 -179 105 -208 191 -250 270 -233 438 16 157 22 159 133 40z m3211 -318 c-10 -66 -32 -147 -49 -180 l-30 -60 12 60 c47 254 65 323 81 306 3 -3 -3 -60 -14 -126z m-3322 -18 c58 -90 295 -296 626 -545 149 -112 303 -238 342 -280 70 -75 267 -405 251 -421 -25 -25 -1017 680 -1124 797 -123 137 -209 340 -184 437 24 97 33 98 89 12z m-53 -331 c98 -184 314 -361 959 -785 434 -285 593 -427 679 -603 24 -50 74 -129 111 -176 37 -47 66 -88 63 -90 -8 -9 -270 91 -356 134 -93 48 -669 616 -851 840 -139 172 -363 379 -592 548 -109 79 -153 124 -145 145 6 16 17 51 23 78 16 64 35 48 109 -91z m2884 86 l135 -13 0 -122 c-1 -169 17 -162 -400 -162 -203 0 -401 -4 -440 -10 l-70 -10 -33 120 c-54 193 -58 187 108 195 286 14 567 14 700 2z m-1297 -117 c166 -133 178 -134 290 -20 49 50 95 90 104 90 15 0 89 -298 75 -307 -4 -2 -57 -37 -117 -76 -244 -157 -217 -158 -465 13 -198 137 -196 130 -115 291 73 144 59 143 228 9z m-2029 10 c224 -88 494 -283 809 -584 191 -183 198 -167 -134 -283 -417 -147 -414 -144 -364 -406 16 -86 43 -233 60 -327 l30 -170 -52 -45 c-61 -54 -79 -47 -96 39 -53 267 -243 661 -387 802 -381 378 -843 586 -1054 476 -113 -60 -115 -32 -4 72 l96 91 118 -12 c309 -32 763 -315 1045 -651 62 -75 97 -70 47 6 -180 275 -797 672 -1043 672 -110 0 -84 26 125 126 477 227 628 264 804 194z m3561 -50 c10 -27 27 -50 36 -50 10 0 28 23 40 50 24 52 77 72 57 21 -6 -16 -31 -102 -55 -190 -50 -182 -50 -182 -125 -104 -52 54 -53 60 -31 165 38 183 46 193 78 108z m-164 -311 c-11 -150 33 -135 -405 -141 l-380 -6 -24 119 c-13 65 -19 124 -14 129 15 15 472 31 664 23 l168 -6 -9 -118z m568 -54 c237 -147 556 -472 509 -519 -6 -6 -104 30 -217 80 -208 92 -344 137 -306 100 11 -11 65 -36 120 -56 102 -37 321 -130 410 -175 93 -47 394 -755 321 -755 -60 0 -94 62 -181 330 -127 393 -137 402 -585 565 l-152 55 -91 178 c-87 171 -89 179 -62 245 35 84 16 88 234 -48z m-463 30 c52 -63 38 -255 -19 -255 -33 0 -80 126 -70 186 23 131 32 138 89 69z m-1441 -474 c83 -55 162 -112 177 -128 15 -16 58 -62 95 -103 l69 -75 267 8 c292 9 315 17 362 131 28 66 93 106 173 106 47 0 45 -10 -56 -251 -80 -191 -43 -178 -507 -178 -398 -1 -499 22 -587 135 -28 35 -100 118 -161 184 -86 93 -312 456 -312 501 0 5 74 -45 165 -111 91 -66 233 -164 315 -219z m-2818 235 c346 -166 617 -407 741 -658 90 -183 225 -579 203 -598 -9 -8 -67 -38 -130 -66 -136 -61 -122 -72 -245 206 -233 525 -652 919 -1097 1031 -98 24 -44 82 146 156 73 29 239 -2 382 -71z m4138 33 c68 -82 47 -144 -53 -156 -323 -38 -948 -36 -947 4 3 78 218 153 470 164 393 17 509 14 530 -12z m355 -49 c70 -122 87 -258 71 -559 -8 -149 -18 -253 -22 -231 -4 22 -16 49 -26 59 -10 10 -18 43 -18 72 0 29 -32 168 -70 309 -62 225 -68 266 -48 328 42 129 51 131 113 22z m-2648 -315 c48 -74 93 -148 100 -165 8 -16 72 -124 143 -240 129 -210 129 -210 87 -245 -74 -62 -103 -43 -207 136 -140 242 -131 237 -307 169 -81 -32 -152 -62 -157 -68 -6 -5 23 -91 63 -191 89 -215 89 -214 -50 -263 -116 -41 -319 -139 -548 -264 l-140 -76 -35 46 c-48 63 -50 60 85 112 67 26 166 80 222 120 l100 74 -12 127 c-7 69 -31 220 -53 334 -61 313 -80 292 402 470 211 78 209 78 307 -76z m3763 88 c252 -55 573 -282 671 -476 45 -87 42 -105 -73 -502 -66 -229 -73 -227 -116 28 -84 502 -242 751 -582 917 -136 67 -104 77 100 33z m-746 -54 c337 -124 346 -134 476 -529 90 -275 104 -298 204 -337 82 -33 173 -123 148 -148 -7 -6 -91 25 -187 70 -96 45 -216 99 -267 121 l-92 39 -13 141 c-18 190 -19 192 -152 252 -162 73 -161 73 -161 -89 0 -185 -19 -222 -104 -198 -86 25 -89 35 -73 213 8 86 15 239 16 341 0 102 9 185 20 185 10 0 93 -28 185 -61z m1126 -4 c15 -14 60 -47 101 -75 111 -77 244 -216 266 -281 29 -83 -2 -73 -66 19 -30 44 -139 149 -243 234 -103 85 -188 158 -188 161 0 12 104 -34 130 -58z m324 -90 c818 -401 1235 -1204 1133 -2182 -15 -148 -23 -150 -102 -28 -34 52 -106 143 -159 203 l-97 107 -167 -126 c-162 -122 -169 -125 -230 -100 -34 14 -82 30 -107 35 -65 15 -56 40 35 86 147 75 203 278 121 439 -81 157 -222 214 -361 146 -90 -45 -101 -38 -139 80 -42 131 143 629 224 604 325 -98 522 -351 624 -803 l31 -136 -10 132 c-29 374 -218 653 -546 810 -144 68 -170 55 -235 -118 -30 -79 -66 -171 -80 -204 -14 -33 -32 -80 -39 -105 -7 -25 -20 -45 -29 -45 -33 0 -40 63 -13 106 35 55 181 492 224 673 47 193 -71 385 -307 497 -73 35 -89 72 -20 46 25 -10 137 -62 249 -117z m-2221 37 c-6 -32 -17 -143 -24 -245 -20 -293 -51 -381 -149 -424 -117 -52 -120 -43 -59 167 96 329 276 718 232 502z m-353 -55 c0 -82 -491 -123 -585 -48 -86 68 -75 71 265 71 224 0 320 -7 320 -23z m-1497 -214 c208 -230 235 -250 475 -358 301 -135 440 -160 842 -150 495 12 623 82 684 378 28 139 54 140 98 6 73 -225 72 -228 -67 -395 -157 -188 -178 -194 -685 -199 l-380 -4 -420 188 c-520 232 -468 188 -698 606 -102 186 -66 169 151 -72z m3373 72 c135 -127 183 -218 245 -458 63 -248 52 -303 -49 -237 -50 33 -51 35 -222 460 -168 416 -168 418 26 235z m-2496 -228 c72 -12 259 -18 417 -13 l287 9 -13 -61 c-48 -241 -62 -248 -458 -225 -248 14 -252 16 -375 197 -90 132 -94 145 -33 128 25 -8 104 -23 175 -35z m-548 -357 c116 -55 215 -100 220 -100 4 0 78 -32 163 -72 226 -105 228 -105 398 -109 196 -5 207 -11 317 -175 105 -156 109 -176 35 -189 -149 -26 -330 2 -393 62 -93 86 -324 235 -687 442 -292 166 -383 241 -295 241 17 0 126 -45 242 -100z m2028 34 c0 -43 -179 -641 -197 -659 -9 -9 -82 -14 -163 -11 l-145 6 -76 174 c-85 197 -85 196 41 196 91 0 97 4 227 149 128 143 153 157 278 168 19 2 35 -9 35 -23z m287 -22 c67 -27 187 -71 265 -99 534 -189 672 -292 513 -385 -124 -72 -466 -333 -605 -462 -113 -104 -180 -236 -180 -357 0 -36 -13 -48 -55 -53 -33 -3 -63 -23 -74 -48 -17 -41 -36 -43 -470 -56 -248 -7 -514 -18 -592 -25 -131 -11 -145 -8 -203 41 -34 28 -79 52 -100 52 -20 0 -96 57 -167 126 -129 126 -130 126 -649 331 -286 113 -551 218 -590 233 -76 31 -274 105 -425 159 -99 36 -112 52 -70 87 39 32 491 233 615 273 115 38 156 62 135 83 -34 33 -718 -253 -802 -337 -63 -62 -92 -60 -181 11 l-58 47 248 111 c239 108 689 276 737 276 13 0 88 -39 167 -87 79 -47 216 -125 304 -172 496 -264 652 -403 832 -735 56 -102 109 -186 119 -186 21 0 -39 145 -127 304 -34 63 -58 118 -53 122 5 5 244 14 532 20 l523 11 45 -103 c25 -57 53 -131 62 -164 12 -46 14 -34 10 52 -3 66 -24 146 -49 195 -32 61 -39 95 -26 128 10 25 36 113 58 195 21 83 50 193 64 245 31 116 16 117 360 -3 298 -105 420 -166 498 -250 61 -65 115 -73 77 -11 -76 122 -733 419 -870 393 -47 -9 -53 1 -33 54 17 44 71 40 215 -16z m-1166 -293 c41 -21 179 -276 179 -329 0 -70 -64 -21 -122 95 -35 69 -80 146 -100 172 -54 68 -30 102 43 62z m233 -160 c97 -195 98 -199 49 -199 -27 0 -52 38 -93 141 -32 78 -65 146 -74 151 -9 6 -16 29 -16 51 0 79 51 24 134 -144z m1882 117 c44 -44 29 -87 -16 -46 -41 37 -52 70 -24 70 9 0 27 -11 40 -24z m-4627 -118 c88 -52 88 -64 4 -94 -117 -43 -116 -41 -376 -674 -108 -263 -117 -274 -183 -225 -32 23 -28 41 47 235 183 476 203 533 202 604 -1 128 188 223 306 154z m5372 -299 c153 -81 154 -377 3 -466 -85 -49 -143 -14 -71 43 176 140 61 405 -138 315 -27 -12 -35 -6 -35 26 0 76 154 129 241 82z m-33 -210 c22 -87 -60 -219 -102 -164 -23 30 -90 198 -82 205 74 57 165 37 184 -41z m-6392 0 c57 -40 58 -136 3 -227 l-42 -67 -58 56 c-122 116 -35 330 97 238z m6988 -364 c225 -243 277 -388 213 -600 -28 -90 -19 -95 -295 196 -230 243 -245 263 -210 288 21 15 79 59 128 98 109 86 101 85 164 18z m-2404 -234 c0 -32 -116 -40 -710 -47 -198 -3 -390 -10 -427 -17 -58 -11 -66 -7 -60 25 7 35 31 39 267 44 143 3 274 8 290 12 101 24 640 10 640 -17z m2225 -346 c122 -124 200 -262 111 -197 -123 89 -350 100 -477 21 -28 -17 -34 17 -21 118 11 94 16 99 102 133 140 56 161 50 285 -75z m-7344 -54 c55 -26 160 -83 232 -125 l130 -76 -11 -108 c-15 -135 -2 -130 -132 -54 -247 144 -512 207 -659 156 -99 -35 -55 7 144 138 210 138 172 129 296 69z"/> <path d="M3470 3521 c-158 -56 -422 -185 -398 -194 11 -4 110 27 220 70 109 43 224 86 257 97 60 19 96 67 48 65 -15 -1 -72 -18 -127 -38z"/> <path d="M1607 2471 c-351 -177 -403 -218 -491 -391 -71 -139 -214 -543 -246 -695 -17 -81 -101 -152 -337 -282 -198 -109 -198 -109 -430 -45 -86 24 -136 15 -86 -16 103 -64 335 -87 424 -42 311 157 448 264 470 366 31 141 177 571 229 674 84 165 128 200 490 390 356 187 336 222 -23 41z"/> </g> </svg>