<?xml version="1.0" standalone="no"?> <!DOCTYPE svg PUBLIC "-//W3C//DTD SVG 20010904//EN" "http://www.w3.org/TR/2001/REC-SVG-20010904/DTD/svg10.dtd"> <svg version="1.0" xmlns="http://www.w3.org/2000/svg" width="600.000000pt" height="600.000000pt" viewBox="0 0 600.000000 600.000000" preserveAspectRatio="xMidYMid meet"> <g transform="translate(0.000000,600.000000) scale(0.050000,-0.050000)" fill="#960035" stroke="none"> <path d="M4122 10310 c-93 -48 -210 -106 -260 -127 -450 -194 -1676 -823 -1698 -871 -30 -67 -31 -652 -3 -2072 11 -566 28 -1498 37 -2069 l18 -1039 48 -42 c34 -29 125 -57 288 -89 131 -26 258 -54 283 -63 l45 -17 0 -1961 0 -1960 90 0 90 0 0 1918 c0 1055 5 1932 11 1948 10 26 26 26 135 1 102 -24 792 -167 809 -167 3 0 5 -832 5 -1850 l0 -1850 80 0 80 0 0 1832 0 1832 85 -17 c106 -21 804 -13 2215 24 600 16 1340 35 1645 42 l555 13 0 -1863 0 -1863 100 0 100 0 0 1859 c0 1391 6 1862 23 1873 13 8 202 19 420 24 455 11 457 11 479 166 31 220 21 5974 -11 6035 -51 100 -62 103 -594 133 -279 16 -637 38 -797 50 -159 11 -510 34 -780 51 -269 16 -809 52 -1200 79 -991 68 -1977 131 -2060 130 -43 -1 -135 -35 -238 -90z m1278 -170 c347 -22 1040 -67 1540 -100 501 -32 1270 -82 1710 -111 440 -28 838 -56 885 -61 l85 -10 0 -2948 c0 -1621 -7 -2952 -15 -2957 -8 -5 -226 -12 -484 -16 l-469 -7 5 1070 c5 924 2 1075 -24 1110 -27 36 -57 41 -341 46 -172 4 -314 8 -316 10 -2 2 -8 173 -15 380 l-11 377 620 -14 c537 -13 624 -11 645 15 43 52 45 1484 2 1527 -34 35 -915 98 -1186 85 -155 -8 -147 41 -149 -827 l-2 -721 -575 7 c-316 3 -604 11 -640 17 l-65 10 0 757 c0 949 62 841 -501 862 -236 9 -553 22 -704 30 l-275 14 0 -809 c0 -752 3 -812 36 -842 29 -27 107 -34 445 -44 225 -6 526 -15 669 -19 l260 -7 6 -287 c3 -158 0 -336 -7 -395 l-13 -108 -296 13 c-181 9 -316 6 -348 -6 l-52 -20 0 -1138 c0 -886 -6 -1143 -25 -1159 -15 -12 -261 -27 -615 -36 -324 -8 -617 -15 -650 -16 l-60 -2 -5 3198 -5 3197 155 -12 c85 -7 439 -31 785 -53z m-1102 -2705 c0 -1510 7 -2936 14 -3170 8 -234 7 -425 -2 -425 -100 0 -1879 383 -1907 410 -14 15 -35 1695 -46 3700 l-7 1280 100 50 c55 28 306 149 559 270 252 121 639 311 860 422 220 110 407 203 415 205 8 1 14 -1232 14 -2742z m3597 -3164 c4 -186 -2 -346 -11 -355 -28 -28 -1271 -55 -1289 -28 -17 27 -20 655 -3 701 11 28 82 31 655 26 l643 -5 5 -339z"/> </g> </svg>